<svg xmlns="http://www.w3.org/2000/svg" xmlns:xlink="http://www.w3.org/1999/xlink" width="53.72247314453125" height="53.722496032714844" viewBox="0 0 53.72247314453125 53.722496032714844" fill="none">
<path d="M49.055 33.4394L30.8509 23.9595C28.0305 22.4907 24.6707 22.4907 21.8502 23.9595L3.64619 33.4394C3.18383 33.6802 2.81374 34.0667 2.59325 34.539C2.31643 35.1321 2.30619 35.7812 2.51342 36.3513C2.72066 36.9214 3.14536 37.4124 3.73841 37.6892L22.2293 46.3205C24.8415 47.5399 27.8596 47.5399 30.4718 46.3205L48.9627 37.6892C49.4351 37.4687 49.8216 37.0986 50.0624 36.6363C50.3647 36.0557 50.4031 35.4077 50.2208 34.8292C50.0384 34.2507 49.6354 33.7417 49.055 33.4394Z"   fill="url(#linear_fill_0_663)" >
</path>
<path d="M46.4966 26.4021C46.3143 25.8236 45.9113 25.3146 45.3307 25.0124L30.8509 17.4718C28.0305 16.0031 24.6707 16.0031 21.8502 17.4718L7.37044 25.0124C6.90807 25.2531 6.53799 25.6397 6.31749 26.112C6.04067 26.7051 6.03043 27.3542 6.23767 27.9243C6.4449 28.4943 6.8696 28.9854 7.46265 29.2622L22.2294 36.155C24.8415 37.3744 27.8596 37.3744 30.4718 36.155L45.2385 29.2622C45.7109 29.0417 46.0974 28.6716 46.3382 28.2092C46.6405 27.6287 46.6788 26.9807 46.4966 26.4021Z"   fill="url(#linear_fill_0_664)" >
</path>
<path d="M40.7695 21.3618C41.2419 21.1413 41.6284 20.7712 41.8691 20.3088C42.1715 19.7283 42.2099 19.0803 42.0275 18.5018C41.8452 17.9232 41.4422 17.4142 40.8617 17.112L30.8509 11.8988C28.0305 10.43 24.6707 10.43 21.8503 11.8988L11.8395 17.112C11.3771 17.3527 11.007 17.7393 10.7865 18.2116C10.5097 18.8047 10.4995 19.4538 10.7067 20.0239C10.9139 20.5939 11.3387 21.085 11.9317 21.3618L22.2294 26.1686C24.8415 27.3879 27.8596 27.3879 30.4718 26.1686L40.7695 21.3618Z"   fill="url(#linear_fill_0_665)" >
</path>
<defs>
<linearGradient id="linear_fill_0_663" x1="50.330810546875" y1="31.19802474975586" x2="18.04229736328125" y2="36.51224708557129" gradientUnits="userSpaceOnUse">
<stop offset="0" stop-color="#81E6FF"  />
<stop offset="1" stop-color="#409EFF"  />
</linearGradient>
<linearGradient id="linear_fill_0_664" x1="26.3505859375" y1="16.37024688720703" x2="26.3505859375" y2="37.06958770751953" gradientUnits="userSpaceOnUse">
<stop offset="0" stop-color="#59CCFF" stop-opacity="0.2784" />
<stop offset="1" stop-color="#7DB6FF" stop-opacity="0.6" />
</linearGradient>
<linearGradient id="linear_fill_0_665" x1="26.3505859375" y1="10.797157287597656" x2="26.3505859375" y2="27.083086013793945" gradientUnits="userSpaceOnUse">
<stop offset="0" stop-color="#FFFFFF" stop-opacity="0.2353" />
<stop offset="1" stop-color="#FFFFFF" stop-opacity="0.5098" />
</linearGradient>
</defs>
</svg>
