<svg xmlns="http://www.w3.org/2000/svg" xmlns:xlink="http://www.w3.org/1999/xlink" width="138.00042724609375" height="176" viewBox="0 0 138.00042724609375 176" fill="none">
<path d="M44.44 97.8724L44.44 120.251L68.3711 145.808L92.3018 120.251L92.3018 97.8724L44.44 97.8724Z"   fill="#FEE9E8" >
</path>
<path d="M0 146.338L0 169.908C0 173.219 2.39316 175.999 5.35579 175.999L132.644 175.999C135.608 175.999 138 173.351 138 169.908L138 146.338C137.887 140.776 134.467 135.877 129.681 134.553L129.679 134.552L96.8589 125.813C96.4038 125.681 95.9482 125.416 95.4917 125.151L68.9433 142.895L43.4172 124.356C42.7338 125.018 41.9361 125.548 41.0244 125.813L8.20498 134.552C3.41867 135.877 0 140.644 0 146.338Z"   fill="#EDF1F6" >
</path>
<path d="M92.3036 102.905L92.3036 99.1972L44.4418 99.1972L44.4418 121.443C74.6394 133.758 92.3036 102.905 92.3036 102.905Z"   fill="#F5DDDD" >
</path>
<path d="M44.8969 101.184L55.6094 110.32C58.3433 112.572 61.5356 113.896 64.9533 113.896L75.3232 113.896C78.6275 113.896 81.9328 112.704 84.6676 110.32L95.3796 101.184C99.14 98.0055 101.305 93.1061 101.533 87.9417L103.812 31.664L36.4646 31.664L38.7434 87.9417C38.9707 93.2385 41.2504 98.0055 44.8969 101.184Z"   fill="#FFEEEE" >
</path>
<path d="M118.398 156.402C115.549 159.315 113.953 163.42 113.953 167.525L113.953 175.867L132.529 175.867C135.492 175.867 137.885 173.219 137.885 169.909L137.885 146.338C137.885 143.557 137.087 141.042 135.605 138.923L118.401 156.401L118.398 156.402Z"   fill="#E3E9F0" >
</path>
<path d="M73.4995 149.516L63.2435 149.516L61.5342 176L75.2093 176L73.4995 149.516Z"   fill="#C7CDE5" >
</path>
<path d="M61.5342 148.721C61.5342 150.575 62.9019 152.164 64.6107 152.164L72.1324 152.164C73.8412 152.164 75.2093 150.575 75.2093 148.721L75.2093 142.895L61.5342 142.895L61.5342 148.721Z"   fill="#C7CDE5" >
</path>
<path d="M36.5798 125.283L40.2263 119.06C41.024 117.603 42.8477 117.338 44.101 118.53L68.3739 143.424L68.3733 143.425L68.3735 143.425C68.2932 143.472 61.4868 147.443 53.2171 155.21C51.5078 156.799 48.8869 156.137 47.9752 153.885L36.5798 125.283ZM68.3735 143.425C68.4159 143.449 75.237 147.422 83.53 155.21C85.2393 156.799 87.8603 156.137 88.771 153.886L100.167 125.284L96.5204 119.06C95.7231 117.603 93.8999 117.339 92.6461 118.53L92.6439 118.53L68.3739 143.424L68.3743 143.424L68.3735 143.425Z" fill-rule="evenodd"  fill="#E3E9F0" >
</path>
<path d="M100.054 62.2524C100.054 63.3117 100.396 64.3711 100.852 65.1656L105.182 72.8458C105.182 72.8458 103.701 60.2662 110.538 51.7913C110.538 51.659 112.817 1.60478 84.3277 13.655L86.8352 33.65C98.2311 36.166 99.8261 56.426 100.054 62.2524Z"   fill="#9499AD" >
</path>
<path d="M109.165 72.4489C110.077 68.4762 107.455 64.7682 103.696 64.7682C100.277 64.7682 97.5429 67.9465 97.998 71.6543L99.5939 85.4257C99.8217 87.2796 101.189 88.6039 102.898 88.6039C104.379 88.6039 105.747 87.5445 106.088 85.9554L109.166 72.4489L109.165 72.4489Z"   fill="#FFEEEE" >
</path>
<path d="M68.7162 0.0162189C60.5112 0.0162189 45.0133 2.92946 36.9222 7.69643L36.9204 7.6965L40.7947 10.7421C23.131 25.8379 26.4389 51.5268 26.4389 51.5268C31.6808 57.6181 31.6808 72.7138 31.6808 72.7138L36.9222 66.6225C36.9222 66.6225 34.8712 49.1433 44.899 42.39C54.1295 36.1665 62.221 39.3444 70.539 39.3444C92.6469 39.3444 98.9138 29.8103 97.7744 18.1575C97.2049 12.0663 89.2278 -0.513503 68.7162 0.0162189Z"   fill="#9499AD" >
</path>
<path d="M35.3254 36.4305C35.3254 36.4305 32.5892 23.7184 40.7946 10.4765C23.2457 25.5723 26.5505 51.3937 26.5505 51.3937C31.7928 57.4848 31.7928 72.713 31.7928 72.713L37.0338 66.6217C37.0338 66.6217 34.9828 49.0102 44.8967 42.2569C54.1272 35.9008 62.1043 39.2113 70.3093 39.2113C73.841 39.2113 77.0319 38.9465 79.7672 38.4167C62.7877 39.0788 52.8738 24.1154 35.3254 36.4304L35.3254 36.4305Z"   fill="#9499AD" >
</path>
<path d="M36.126 87.279C37.834 87.279 39.2016 85.9549 39.4294 84.1009L41.0249 70.3292C41.4814 66.6217 38.7465 63.4437 35.3274 63.4437C31.5666 63.4437 28.9465 67.1514 29.8577 71.1238L32.9342 84.6306C33.2764 86.2194 34.6445 87.279 36.126 87.279Z"   fill="#FFEEEE" >
</path>
<path d="M82.1615 172.689L82.1615 176L106.091 176L106.091 172.689C105.978 170.835 104.839 169.379 103.357 169.379L84.7829 169.379C83.3009 169.379 82.1615 170.835 82.1615 172.689Z"   fill="#E3E9F0" >
</path>
</svg>
